<mxfile host="app.diagrams.net" modified="2022-02-09T12:06:24.180Z" agent="5.0 (Windows NT 10.0; Win64; x64) AppleWebKit/537.36 (KHTML, like Gecko) Chrome/97.0.4692.99 Safari/537.36" etag="BUOiG4PeX5K-z7u9ajfT" version="16.5.4" type="github">
  <diagram id="C5RBs43oDa-KdzZeNtuy" name="Page-1">
    <mxGraphModel dx="1093" dy="1403" grid="1" gridSize="10" guides="1" tooltips="1" connect="1" arrows="1" fold="1" page="1" pageScale="1" pageWidth="1169" pageHeight="827" math="0" shadow="0">
      <root>
        <mxCell id="WIyWlLk6GJQsqaUBKTNV-0" />
        <mxCell id="WIyWlLk6GJQsqaUBKTNV-1" parent="WIyWlLk6GJQsqaUBKTNV-0" />
        <mxCell id="WIyWlLk6GJQsqaUBKTNV-4" value="NO" style="rounded=0;html=1;jettySize=auto;orthogonalLoop=1;fontSize=11;endArrow=block;endFill=0;endSize=8;strokeWidth=1;shadow=0;labelBackgroundColor=none;edgeStyle=orthogonalEdgeStyle;exitX=0;exitY=0.5;exitDx=0;exitDy=0;" parent="WIyWlLk6GJQsqaUBKTNV-1" source="WU4RE_nsY_l5Y8fbrWpe-24" target="WIyWlLk6GJQsqaUBKTNV-10" edge="1">
          <mxGeometry x="-0.0279" y="20" relative="1" as="geometry">
            <mxPoint as="offset" />
            <mxPoint x="430" y="110" as="sourcePoint" />
            <Array as="points">
              <mxPoint x="740" y="360" />
              <mxPoint x="740" y="140" />
              <mxPoint x="280" y="140" />
            </Array>
          </mxGeometry>
        </mxCell>
        <mxCell id="WIyWlLk6GJQsqaUBKTNV-8" value="No" style="rounded=0;html=1;jettySize=auto;orthogonalLoop=1;fontSize=11;endArrow=block;endFill=0;endSize=8;strokeWidth=1;shadow=0;labelBackgroundColor=none;edgeStyle=orthogonalEdgeStyle;entryX=0.5;entryY=0;entryDx=0;entryDy=0;" parent="WIyWlLk6GJQsqaUBKTNV-1" source="WIyWlLk6GJQsqaUBKTNV-10" target="WU4RE_nsY_l5Y8fbrWpe-1" edge="1">
          <mxGeometry x="0.3333" y="20" relative="1" as="geometry">
            <mxPoint as="offset" />
            <mxPoint x="190" y="590" as="targetPoint" />
          </mxGeometry>
        </mxCell>
        <mxCell id="WIyWlLk6GJQsqaUBKTNV-9" value="Yes" style="edgeStyle=orthogonalEdgeStyle;rounded=0;html=1;jettySize=auto;orthogonalLoop=1;fontSize=11;endArrow=block;endFill=0;endSize=8;strokeWidth=1;shadow=0;labelBackgroundColor=none;" parent="WIyWlLk6GJQsqaUBKTNV-1" source="WIyWlLk6GJQsqaUBKTNV-10" target="WIyWlLk6GJQsqaUBKTNV-12" edge="1">
          <mxGeometry y="10" relative="1" as="geometry">
            <mxPoint as="offset" />
          </mxGeometry>
        </mxCell>
        <mxCell id="WIyWlLk6GJQsqaUBKTNV-10" value="&lt;font style=&quot;font-size: 10px&quot;&gt;Are you able to make design using Canva, Adobe Photshop &lt;br&gt;or any other program?&lt;/font&gt;" style="rhombus;whiteSpace=wrap;html=1;shadow=0;fontFamily=Helvetica;fontSize=12;align=center;strokeWidth=1;spacing=6;spacingTop=-4;" parent="WIyWlLk6GJQsqaUBKTNV-1" vertex="1">
          <mxGeometry x="200" y="300" width="160" height="160" as="geometry" />
        </mxCell>
        <mxCell id="WIyWlLk6GJQsqaUBKTNV-12" value="PR Committee" style="rounded=1;whiteSpace=wrap;html=1;fontSize=12;glass=0;strokeWidth=1;shadow=0;" parent="WIyWlLk6GJQsqaUBKTNV-1" vertex="1">
          <mxGeometry x="540" y="360" width="120" height="40" as="geometry" />
        </mxCell>
        <mxCell id="WU4RE_nsY_l5Y8fbrWpe-1" value="&lt;span style=&quot;font-size: 10px&quot;&gt;Do you like content writing or taking pictures or videos?&lt;/span&gt;" style="rhombus;whiteSpace=wrap;html=1;shadow=0;fontFamily=Helvetica;fontSize=12;align=center;strokeWidth=1;spacing=6;spacingTop=-4;" vertex="1" parent="WIyWlLk6GJQsqaUBKTNV-1">
          <mxGeometry x="200" y="530" width="160" height="160" as="geometry" />
        </mxCell>
        <mxCell id="WU4RE_nsY_l5Y8fbrWpe-2" value="Yes" style="edgeStyle=orthogonalEdgeStyle;rounded=0;html=1;jettySize=auto;orthogonalLoop=1;fontSize=11;endArrow=block;endFill=0;endSize=8;strokeWidth=1;shadow=0;labelBackgroundColor=none;entryX=0.5;entryY=1;entryDx=0;entryDy=0;" edge="1" parent="WIyWlLk6GJQsqaUBKTNV-1" target="WIyWlLk6GJQsqaUBKTNV-12">
          <mxGeometry y="10" relative="1" as="geometry">
            <mxPoint as="offset" />
            <mxPoint x="360" y="610" as="sourcePoint" />
            <mxPoint x="354" y="670" as="targetPoint" />
            <Array as="points">
              <mxPoint x="600" y="610" />
            </Array>
          </mxGeometry>
        </mxCell>
        <mxCell id="WU4RE_nsY_l5Y8fbrWpe-3" value="No" style="rounded=0;html=1;jettySize=auto;orthogonalLoop=1;fontSize=11;endArrow=block;endFill=0;endSize=8;strokeWidth=1;shadow=0;labelBackgroundColor=none;edgeStyle=orthogonalEdgeStyle;" edge="1" parent="WIyWlLk6GJQsqaUBKTNV-1">
          <mxGeometry x="0.1134" y="10" relative="1" as="geometry">
            <mxPoint as="offset" />
            <mxPoint x="279.5" y="690" as="sourcePoint" />
            <mxPoint x="280" y="780" as="targetPoint" />
            <Array as="points">
              <mxPoint x="279.5" y="730" />
              <mxPoint x="279.5" y="730" />
            </Array>
          </mxGeometry>
        </mxCell>
        <mxCell id="WU4RE_nsY_l5Y8fbrWpe-8" value="&lt;span style=&quot;font-size: 10px&quot;&gt;Are you interested in technology and software development?&lt;/span&gt;" style="rhombus;whiteSpace=wrap;html=1;shadow=0;fontFamily=Helvetica;fontSize=12;align=center;strokeWidth=1;spacing=6;spacingTop=-4;" vertex="1" parent="WIyWlLk6GJQsqaUBKTNV-1">
          <mxGeometry x="200" y="780" width="160" height="160" as="geometry" />
        </mxCell>
        <mxCell id="WU4RE_nsY_l5Y8fbrWpe-10" value="Yes" style="edgeStyle=orthogonalEdgeStyle;rounded=0;html=1;jettySize=auto;orthogonalLoop=1;fontSize=11;endArrow=block;endFill=0;endSize=8;strokeWidth=1;shadow=0;labelBackgroundColor=none;" edge="1" parent="WIyWlLk6GJQsqaUBKTNV-1">
          <mxGeometry y="10" relative="1" as="geometry">
            <mxPoint as="offset" />
            <mxPoint x="360" y="859.5" as="sourcePoint" />
            <mxPoint x="610" y="859.5" as="targetPoint" />
          </mxGeometry>
        </mxCell>
        <mxCell id="WU4RE_nsY_l5Y8fbrWpe-11" value="IT Committee" style="rounded=1;whiteSpace=wrap;html=1;fontSize=12;glass=0;strokeWidth=1;shadow=0;" vertex="1" parent="WIyWlLk6GJQsqaUBKTNV-1">
          <mxGeometry x="610" y="840" width="120" height="40" as="geometry" />
        </mxCell>
        <mxCell id="WU4RE_nsY_l5Y8fbrWpe-12" value="No" style="rounded=0;html=1;jettySize=auto;orthogonalLoop=1;fontSize=11;endArrow=block;endFill=0;endSize=8;strokeWidth=1;shadow=0;labelBackgroundColor=none;edgeStyle=orthogonalEdgeStyle;" edge="1" parent="WIyWlLk6GJQsqaUBKTNV-1">
          <mxGeometry x="0.3333" y="20" relative="1" as="geometry">
            <mxPoint as="offset" />
            <mxPoint x="279.5" y="940" as="sourcePoint" />
            <mxPoint x="280" y="1030" as="targetPoint" />
            <Array as="points">
              <mxPoint x="279.5" y="980" />
              <mxPoint x="279.5" y="980" />
            </Array>
          </mxGeometry>
        </mxCell>
        <mxCell id="WU4RE_nsY_l5Y8fbrWpe-14" value="&lt;span style=&quot;font-size: 10px&quot;&gt;Are you interested in improving your language skills and explore other cultures?&lt;/span&gt;" style="rhombus;whiteSpace=wrap;html=1;shadow=0;fontFamily=Helvetica;fontSize=12;align=center;strokeWidth=1;spacing=6;spacingTop=-4;" vertex="1" parent="WIyWlLk6GJQsqaUBKTNV-1">
          <mxGeometry x="795" y="60" width="160" height="160" as="geometry" />
        </mxCell>
        <mxCell id="WU4RE_nsY_l5Y8fbrWpe-15" value="&lt;span style=&quot;font-size: 10px&quot;&gt;Would you like&amp;nbsp; to help erasmmus students with their daily struggles?&lt;/span&gt;" style="rhombus;whiteSpace=wrap;html=1;shadow=0;fontFamily=Helvetica;fontSize=12;align=center;strokeWidth=1;spacing=6;spacingTop=-4;" vertex="1" parent="WIyWlLk6GJQsqaUBKTNV-1">
          <mxGeometry x="790" y="510" width="160" height="160" as="geometry" />
        </mxCell>
        <mxCell id="WU4RE_nsY_l5Y8fbrWpe-16" value="Yes" style="rounded=0;html=1;jettySize=auto;orthogonalLoop=1;fontSize=11;endArrow=block;endFill=0;endSize=8;strokeWidth=1;shadow=0;labelBackgroundColor=none;edgeStyle=orthogonalEdgeStyle;exitX=0.5;exitY=1;exitDx=0;exitDy=0;entryX=0.5;entryY=0;entryDx=0;entryDy=0;" edge="1" parent="WIyWlLk6GJQsqaUBKTNV-1" source="WU4RE_nsY_l5Y8fbrWpe-14" target="WU4RE_nsY_l5Y8fbrWpe-24">
          <mxGeometry y="20" relative="1" as="geometry">
            <mxPoint as="offset" />
            <mxPoint x="450" y="120" as="sourcePoint" />
            <mxPoint x="875" y="300" as="targetPoint" />
          </mxGeometry>
        </mxCell>
        <mxCell id="WU4RE_nsY_l5Y8fbrWpe-17" value="NO" style="rounded=0;html=1;jettySize=auto;orthogonalLoop=1;fontSize=11;endArrow=block;endFill=0;endSize=8;strokeWidth=1;shadow=0;labelBackgroundColor=none;edgeStyle=orthogonalEdgeStyle;entryX=0.5;entryY=0;entryDx=0;entryDy=0;exitX=0.5;exitY=1;exitDx=0;exitDy=0;" edge="1" parent="WIyWlLk6GJQsqaUBKTNV-1" source="WU4RE_nsY_l5Y8fbrWpe-15" target="WU4RE_nsY_l5Y8fbrWpe-18">
          <mxGeometry y="20" relative="1" as="geometry">
            <mxPoint as="offset" />
            <mxPoint x="960" y="670" as="sourcePoint" />
            <mxPoint x="900" y="750" as="targetPoint" />
            <Array as="points">
              <mxPoint x="870" y="690" />
              <mxPoint x="870" y="690" />
            </Array>
          </mxGeometry>
        </mxCell>
        <mxCell id="WU4RE_nsY_l5Y8fbrWpe-18" value="&lt;span style=&quot;font-size: 10px&quot;&gt;Would you like to take part in event organization?&lt;/span&gt;" style="rhombus;whiteSpace=wrap;html=1;shadow=0;fontFamily=Helvetica;fontSize=12;align=center;strokeWidth=1;spacing=6;spacingTop=-4;" vertex="1" parent="WIyWlLk6GJQsqaUBKTNV-1">
          <mxGeometry x="790" y="750" width="160" height="160" as="geometry" />
        </mxCell>
        <mxCell id="WU4RE_nsY_l5Y8fbrWpe-20" value="Yes" style="edgeStyle=orthogonalEdgeStyle;rounded=0;html=1;jettySize=auto;orthogonalLoop=1;fontSize=11;endArrow=block;endFill=0;endSize=8;strokeWidth=1;shadow=0;labelBackgroundColor=none;entryX=0;entryY=0.5;entryDx=0;entryDy=0;" edge="1" parent="WIyWlLk6GJQsqaUBKTNV-1" source="WU4RE_nsY_l5Y8fbrWpe-15" target="WU4RE_nsY_l5Y8fbrWpe-21">
          <mxGeometry y="10" relative="1" as="geometry">
            <mxPoint as="offset" />
            <mxPoint x="955" y="589.39" as="sourcePoint" />
            <mxPoint x="1085" y="589.87" as="targetPoint" />
            <Array as="points">
              <mxPoint x="1020" y="589" />
            </Array>
          </mxGeometry>
        </mxCell>
        <mxCell id="WU4RE_nsY_l5Y8fbrWpe-21" value="Buddy" style="rounded=1;whiteSpace=wrap;html=1;fontSize=12;glass=0;strokeWidth=1;shadow=0;" vertex="1" parent="WIyWlLk6GJQsqaUBKTNV-1">
          <mxGeometry x="1169" y="570" width="120" height="40" as="geometry" />
        </mxCell>
        <mxCell id="WU4RE_nsY_l5Y8fbrWpe-22" value="Yes" style="edgeStyle=orthogonalEdgeStyle;rounded=0;html=1;jettySize=auto;orthogonalLoop=1;fontSize=11;endArrow=block;endFill=0;endSize=8;strokeWidth=1;shadow=0;labelBackgroundColor=none;entryX=0;entryY=0.5;entryDx=0;entryDy=0;" edge="1" parent="WIyWlLk6GJQsqaUBKTNV-1" source="WU4RE_nsY_l5Y8fbrWpe-18" target="WU4RE_nsY_l5Y8fbrWpe-33">
          <mxGeometry y="10" relative="1" as="geometry">
            <mxPoint as="offset" />
            <mxPoint x="950" y="829.3299999999999" as="sourcePoint" />
            <mxPoint x="1090" y="830" as="targetPoint" />
            <Array as="points">
              <mxPoint x="1015" y="829" />
              <mxPoint x="1015" y="830" />
            </Array>
          </mxGeometry>
        </mxCell>
        <mxCell id="WU4RE_nsY_l5Y8fbrWpe-23" value="OC Committtee" style="rounded=1;whiteSpace=wrap;html=1;fontSize=12;glass=0;strokeWidth=1;shadow=0;" vertex="1" parent="WIyWlLk6GJQsqaUBKTNV-1">
          <mxGeometry x="1105" y="990" width="120" height="40" as="geometry" />
        </mxCell>
        <mxCell id="WU4RE_nsY_l5Y8fbrWpe-24" value="&lt;span style=&quot;font-size: 10px&quot;&gt;Would you like to be in personal contact with erasmus students?&lt;/span&gt;" style="rhombus;whiteSpace=wrap;html=1;shadow=0;fontFamily=Helvetica;fontSize=12;align=center;strokeWidth=1;spacing=6;spacingTop=-4;" vertex="1" parent="WIyWlLk6GJQsqaUBKTNV-1">
          <mxGeometry x="795" y="280" width="160" height="160" as="geometry" />
        </mxCell>
        <mxCell id="WU4RE_nsY_l5Y8fbrWpe-25" value="Yes" style="rounded=0;html=1;jettySize=auto;orthogonalLoop=1;fontSize=11;endArrow=block;endFill=0;endSize=8;strokeWidth=1;shadow=0;labelBackgroundColor=none;edgeStyle=orthogonalEdgeStyle;entryX=0.5;entryY=0;entryDx=0;entryDy=0;exitX=0.5;exitY=1;exitDx=0;exitDy=0;" edge="1" parent="WIyWlLk6GJQsqaUBKTNV-1" source="WU4RE_nsY_l5Y8fbrWpe-24" target="WU4RE_nsY_l5Y8fbrWpe-15">
          <mxGeometry y="20" relative="1" as="geometry">
            <mxPoint as="offset" />
            <mxPoint x="1070" y="420" as="sourcePoint" />
            <mxPoint x="955" y="490" as="targetPoint" />
            <Array as="points">
              <mxPoint x="875" y="475" />
              <mxPoint x="880" y="475" />
              <mxPoint x="880" y="510" />
            </Array>
          </mxGeometry>
        </mxCell>
        <mxCell id="WU4RE_nsY_l5Y8fbrWpe-26" value="&lt;span style=&quot;font-size: 10px&quot;&gt;Are you good at budget management?&lt;/span&gt;" style="rhombus;whiteSpace=wrap;html=1;shadow=0;fontFamily=Helvetica;fontSize=12;align=center;strokeWidth=1;spacing=6;spacingTop=-4;" vertex="1" parent="WIyWlLk6GJQsqaUBKTNV-1">
          <mxGeometry x="200" y="1030" width="160" height="160" as="geometry" />
        </mxCell>
        <mxCell id="WU4RE_nsY_l5Y8fbrWpe-27" value="Yes" style="edgeStyle=orthogonalEdgeStyle;rounded=0;html=1;jettySize=auto;orthogonalLoop=1;fontSize=11;endArrow=block;endFill=0;endSize=8;strokeWidth=1;shadow=0;labelBackgroundColor=none;" edge="1" parent="WIyWlLk6GJQsqaUBKTNV-1">
          <mxGeometry y="10" relative="1" as="geometry">
            <mxPoint as="offset" />
            <mxPoint x="360" y="1109.33" as="sourcePoint" />
            <mxPoint x="610" y="1109.33" as="targetPoint" />
          </mxGeometry>
        </mxCell>
        <mxCell id="WU4RE_nsY_l5Y8fbrWpe-28" value="Finance committee" style="rounded=1;whiteSpace=wrap;html=1;fontSize=12;glass=0;strokeWidth=1;shadow=0;" vertex="1" parent="WIyWlLk6GJQsqaUBKTNV-1">
          <mxGeometry x="610" y="1090" width="120" height="40" as="geometry" />
        </mxCell>
        <mxCell id="WU4RE_nsY_l5Y8fbrWpe-29" value="No" style="rounded=0;html=1;jettySize=auto;orthogonalLoop=1;fontSize=11;endArrow=block;endFill=0;endSize=8;strokeWidth=1;shadow=0;labelBackgroundColor=none;edgeStyle=orthogonalEdgeStyle;" edge="1" parent="WIyWlLk6GJQsqaUBKTNV-1">
          <mxGeometry x="0.3333" y="20" relative="1" as="geometry">
            <mxPoint as="offset" />
            <mxPoint x="279.37" y="1190" as="sourcePoint" />
            <mxPoint x="279.87" y="1280" as="targetPoint" />
            <Array as="points">
              <mxPoint x="279.37" y="1230" />
              <mxPoint x="279.37" y="1230" />
            </Array>
          </mxGeometry>
        </mxCell>
        <mxCell id="WU4RE_nsY_l5Y8fbrWpe-30" value="&lt;span style=&quot;font-size: 10px&quot;&gt;do you think you can negotiate like a pro and manage sponsorships?&lt;/span&gt;" style="rhombus;whiteSpace=wrap;html=1;shadow=0;fontFamily=Helvetica;fontSize=12;align=center;strokeWidth=1;spacing=6;spacingTop=-4;" vertex="1" parent="WIyWlLk6GJQsqaUBKTNV-1">
          <mxGeometry x="200" y="1280" width="160" height="160" as="geometry" />
        </mxCell>
        <mxCell id="WU4RE_nsY_l5Y8fbrWpe-31" value="Yes" style="edgeStyle=orthogonalEdgeStyle;rounded=0;html=1;jettySize=auto;orthogonalLoop=1;fontSize=11;endArrow=block;endFill=0;endSize=8;strokeWidth=1;shadow=0;labelBackgroundColor=none;entryX=0.5;entryY=1;entryDx=0;entryDy=0;" edge="1" parent="WIyWlLk6GJQsqaUBKTNV-1" target="WU4RE_nsY_l5Y8fbrWpe-28">
          <mxGeometry y="10" relative="1" as="geometry">
            <mxPoint as="offset" />
            <mxPoint x="360" y="1359.33" as="sourcePoint" />
            <mxPoint x="610" y="1359.33" as="targetPoint" />
          </mxGeometry>
        </mxCell>
        <mxCell id="WU4RE_nsY_l5Y8fbrWpe-32" value="&lt;span style=&quot;color: rgb(0, 0, 0); font-family: helvetica; font-size: 36px; font-style: normal; font-weight: 400; letter-spacing: normal; text-align: center; text-indent: 0px; text-transform: none; word-spacing: 0px; background-color: rgb(248, 249, 250); display: inline; float: none;&quot;&gt;Don&#39;t know which&amp;nbsp; commitee to apply?&lt;/span&gt;" style="text;whiteSpace=wrap;html=1;fontSize=36;" vertex="1" parent="WIyWlLk6GJQsqaUBKTNV-1">
          <mxGeometry x="585" y="-130" width="640" height="100" as="geometry" />
        </mxCell>
        <mxCell id="WU4RE_nsY_l5Y8fbrWpe-33" value="&lt;span style=&quot;font-size: 10px&quot;&gt;are you particularly interested in socially inclusive events?&lt;/span&gt;" style="rhombus;whiteSpace=wrap;html=1;shadow=0;fontFamily=Helvetica;fontSize=12;align=center;strokeWidth=1;spacing=6;spacingTop=-4;" vertex="1" parent="WIyWlLk6GJQsqaUBKTNV-1">
          <mxGeometry x="1085" y="750" width="160" height="160" as="geometry" />
        </mxCell>
        <mxCell id="WU4RE_nsY_l5Y8fbrWpe-34" value="Yes" style="edgeStyle=orthogonalEdgeStyle;rounded=0;html=1;jettySize=auto;orthogonalLoop=1;fontSize=11;endArrow=block;endFill=0;endSize=8;strokeWidth=1;shadow=0;labelBackgroundColor=none;exitX=1;exitY=0.5;exitDx=0;exitDy=0;" edge="1" parent="WIyWlLk6GJQsqaUBKTNV-1" source="WU4RE_nsY_l5Y8fbrWpe-33">
          <mxGeometry y="10" relative="1" as="geometry">
            <mxPoint as="offset" />
            <mxPoint x="1329.0000000000002" y="829.47" as="sourcePoint" />
            <mxPoint x="1330" y="830" as="targetPoint" />
            <Array as="points" />
          </mxGeometry>
        </mxCell>
        <mxCell id="WU4RE_nsY_l5Y8fbrWpe-35" value="NO" style="rounded=0;html=1;jettySize=auto;orthogonalLoop=1;fontSize=11;endArrow=block;endFill=0;endSize=8;strokeWidth=1;shadow=0;labelBackgroundColor=none;edgeStyle=orthogonalEdgeStyle;entryX=0.5;entryY=0;entryDx=0;entryDy=0;exitX=0.5;exitY=1;exitDx=0;exitDy=0;" edge="1" parent="WIyWlLk6GJQsqaUBKTNV-1" source="WU4RE_nsY_l5Y8fbrWpe-33">
          <mxGeometry y="20" relative="1" as="geometry">
            <mxPoint as="offset" />
            <mxPoint x="1168" y="910" as="sourcePoint" />
            <mxPoint x="1168" y="990" as="targetPoint" />
            <Array as="points">
              <mxPoint x="1168" y="910" />
            </Array>
          </mxGeometry>
        </mxCell>
        <mxCell id="WU4RE_nsY_l5Y8fbrWpe-36" value="Social Erasmus and Exchangebility Committee" style="rounded=1;whiteSpace=wrap;html=1;fontSize=12;glass=0;strokeWidth=1;shadow=0;" vertex="1" parent="WIyWlLk6GJQsqaUBKTNV-1">
          <mxGeometry x="1340" y="810" width="120" height="40" as="geometry" />
        </mxCell>
      </root>
    </mxGraphModel>
  </diagram>
</mxfile>
